<svg version="1.1" xmlns="http://www.w3.org/2000/svg" xmlns:xlink="http://www.w3.org/1999/xlink" role="img" width="137" height="90" viewbox="0 0 137 90"><title>TSM</title><desc>Generated by logo.svg, https://github.com/bubkoo/logo.svg</desc><path fill="#2b68a7" d="M6.89 70.35L7.46 67.66L8.94 67.66Q11.05 67.66 12.74 66.96Q14.44 66.26 15.08 63.38L22.63 27.86L16.49 27.86Q13.67 27.86 12.23 29.42Q10.79 30.99 10.09 33.10L9.19 35.86L5.86 35.86L8.55 24.66L44.58 24.66L42.54 35.86L39.21 35.86Q39.27 35.54 39.34 34.64Q39.40 33.74 39.46 32.94Q39.53 32.14 39.53 31.95Q39.53 30.29 38.63 29.07Q37.74 27.86 35.30 27.86L29.10 27.86L21.54 63.31Q21.29 64.34 21.29 65.10Q21.29 66.77 22.60 67.22Q23.91 67.66 25.90 67.66L27.37 67.66L26.79 70.35L6.89 70.35ZM54.89 70.99Q50.22 70.99 47.05 69.74Q43.88 68.50 42.28 66.42Q40.68 64.34 40.68 61.84Q40.68 59.41 42.22 58.19Q43.75 56.98 45.61 56.98Q45.61 59.92 46.66 62.38Q47.72 64.85 49.86 66.35Q52.01 67.86 55.34 67.86Q59.82 67.86 62.44 65.62Q65.06 63.38 65.06 59.60Q65.06 57.68 64.49 56.14Q63.91 54.61 62.18 53.07Q60.46 51.54 57 49.55Q52.97 47.25 50.44 44.24Q47.91 41.23 47.91 36.37Q47.91 32.72 49.77 29.94Q51.62 27.15 55.11 25.58Q58.60 24.02 63.46 24.02Q69.03 24.02 72.33 25.94Q75.62 27.86 75.62 30.93Q75.62 32.91 74.28 34.13Q72.94 35.34 69.99 35.34Q69.99 33.62 69.42 31.73Q68.84 29.84 67.34 28.53Q65.83 27.22 62.95 27.22Q60.71 27.22 58.73 28.08Q56.74 28.94 55.50 30.74Q54.25 32.53 54.25 35.28Q54.25 37.65 55.11 39.25Q55.98 40.85 57.77 42.19Q59.56 43.54 62.18 45.07Q66.98 47.82 69.32 50.77Q71.66 53.71 71.66 57.55Q71.66 63.95 67.18 67.47Q62.70 70.99 54.89 70.99ZM73.77 70.35L74.34 67.66L75.18 67.66Q77.22 67.66 78.92 66.96Q80.62 66.26 81.26 63.38L87.98 31.70Q88.23 30.67 88.23 29.90Q88.23 28.24 86.95 27.79Q85.67 27.34 83.62 27.34L82.79 27.34L83.37 24.66L97.90 24.66L103.34 61.14L124.26 24.66L138.54 24.66L137.96 27.34L137.13 27.34Q134.95 27.34 133.26 28.14Q131.56 28.94 130.92 31.95L124.26 63.31Q124.01 64.34 124.01 65.10Q124.01 66.77 125.32 67.22Q126.63 67.66 128.62 67.66L129.45 67.66L128.87 70.35L111.85 70.35L112.42 67.66L112.62 67.66Q114.66 67.66 116.01 66.96Q117.35 66.26 118.06 63.63L125.35 29.46L101.99 70.35L98.54 70.35L92.33 29.46L85.16 63.31Q84.90 64.34 84.90 65.10Q84.90 66.77 86.18 67.22Q87.46 67.66 89.51 67.66L90.34 67.66L89.77 70.35L73.77 70.35Z"></path></svg>